<svg width="25" height="24" viewBox="0 0 25 24" fill="none" xmlns="http://www.w3.org/2000/svg">
<path d="M16.1915 12.26C19.0247 12.26 21.3215 9.96323 21.3215 7.13C21.3215 4.29678 19.0247 2 16.1915 2C13.3583 2 11.0615 4.29678 11.0615 7.13C11.0615 9.96323 13.3583 12.26 16.1915 12.26Z" stroke="#101010" stroke-width="1.5" stroke-miterlimit="10"/>
<path d="M6.96158 19.44C8.66262 19.44 10.0416 18.0611 10.0416 16.36C10.0416 14.659 8.66262 13.28 6.96158 13.28C5.26054 13.28 3.88159 14.659 3.88159 16.36C3.88159 18.0611 5.26054 19.44 6.96158 19.44Z" stroke="#101010" stroke-width="1.5" stroke-miterlimit="10"/>
<path d="M17.2216 22C18.6354 22 19.7816 20.8539 19.7816 19.44C19.7816 18.0262 18.6354 16.88 17.2216 16.88C15.8077 16.88 14.6616 18.0262 14.6616 19.44C14.6616 20.8539 15.8077 22 17.2216 22Z" stroke="#101010" stroke-width="1.5" stroke-miterlimit="10"/>
</svg>
